<svg width="46" height="48" viewBox="0 0 46 48" fill="none" xmlns="http://www.w3.org/2000/svg">
<path d="M18.0215 0.860321C13.4793 0.860321 8.94153 2.65673 5.47888 6.24628C-1.4526 13.4317 -1.45243 25.0675 5.47888 32.2532C11.8149 38.8211 21.7844 39.3728 28.8051 33.768L41.482 46.9098C42.3353 47.7944 43.7107 47.7953 44.5649 46.9098L45.2292 46.2176C46.0825 45.333 46.0825 43.908 45.2292 43.0234L32.4771 29.802C37.4179 22.5286 36.6945 12.602 30.5642 6.24628C27.1016 2.65673 22.5638 0.860321 18.0215 0.860321ZM18.0215 5.96128C21.2997 5.96128 24.5811 7.25676 27.0853 9.85274C32.0879 15.0386 32.0892 23.4609 27.087 28.6467C22.0846 33.8327 13.9585 33.8327 8.95618 28.6467C3.95384 23.4608 3.95371 15.0385 8.95618 9.85274C11.4602 7.25692 14.7434 5.96128 18.0215 5.96128Z" fill="black"/>
</svg>
